<?xml version="1.0" encoding="utf-8"?>
<!-- Generator: Adobe Illustrator 23.0.6, SVG Export Plug-In . SVG Version: 6.00 Build 0)  -->
<svg version="1.1" id="Capa_1" xmlns="http://www.w3.org/2000/svg" xmlns:xlink="http://www.w3.org/1999/xlink" x="0px" y="0px"
	 viewBox="0 0 480 800" style="enable-background:new 0 0 480 800;" xml:space="preserve">
<style type="text/css">
	.st0{fill:#2C3E50;}
	.st1{fill:#FDFDFD;}
	.st2{fill:#FAFAFA;}
</style>
<g>
	<rect class="st0" width="480" height="800"/>
</g>
<g>
	<g>
		<g>
			<path class="st1" d="M270.28,277.15c-45.27,0-83.15,31.6-92.79,73.95h35.41c8.63-23.32,31.06-39.94,57.38-39.94
				c33.78,0,61.17,27.38,61.17,61.17s-27.38,61.17-61.17,61.17c-26.32,0-48.75-16.62-57.38-39.94h-35.41
				c9.65,42.34,47.53,73.95,92.79,73.95c52.56,0,95.17-42.61,95.17-95.17S322.85,277.15,270.28,277.15z"/>
		</g>
		<g>
			<path class="st1" d="M312.57,349.76c-0.04-6.17-2.09-8.13-8.36-8.18c-10.94-0.09-21.88-0.02-32.81-0.03
				c-10.74,0-21.48-0.05-32.22,0.02c-6.99,0.05-8.8,1.87-8.84,8.91c-0.07,12.13-0.02,24.26-0.02,36.39c0,16.61,0,16.6,16.44,16.11
				c2.15-0.06,4.16,0.44,4.45-3.04c0.23-2.64,3.91-2.79,4.15-0.98c0.73,5.57,4.51,3.89,7.48,3.96c6.56,0.15,13.13,0.06,19.69,0.04
				c2.11-0.01,4.58,0.6,4.39-2.99c-0.07-1.39,1.08-1.97,2.45-1.99c1.43-0.02,2.37,0.61,2.31,2.06c-0.13,3.04,1.88,2.95,3.95,2.93
				c2.98-0.02,5.97-0.12,8.95,0.02c5.59,0.26,8.03-2.5,8.02-7.89C312.59,379.98,312.67,364.87,312.57,349.76z M255.55,352.2
				c5.11-0.25,9.25,3.49,9.39,8.51c0.14,4.82-3.46,8.7-8.31,8.95c-5.18,0.27-9.21-3.39-9.34-8.48
				C247.16,356.35,250.76,352.44,255.55,352.2z M264.55,387.37c-2.96-0.16-5.93-0.03-8.9-0.03c-1.78,0-3.57,0.1-5.34-0.02
				c-3.18-0.21-7.4,1.31-8.65-3.07c-1.33-4.64-0.99-9.49,2.36-13.46c1.74-2.06,4.05-2.3,6.41-0.85c3.71,2.28,7.39,2.29,11.19,0.08
				c3.84-2.23,6.54-0.45,8.09,3.07c0.94,2.12,1.36,4.56,1.56,6.9C271.67,384.73,269.89,387.66,264.55,387.37z M279.5,357.31
				c6.56,0.01,13.12,0,19.68,0c1.56,0,2.76,0.4,2.7,2.3c-0.05,1.71-0.93,2.5-2.62,2.49c-3.38-0.02-6.76,0-10.14,0
				c-3.18,0.01-6.36,0-9.54,0.01c-1.62,0.01-2.63-0.55-2.68-2.37C276.86,357.86,277.88,357.31,279.5,357.31z M279.59,367.16
				c6.56,0.01,13.12,0,19.68,0.03c1.63,0.01,2.61,0.92,2.64,2.58c0.03,1.81-1.18,2.34-2.76,2.34c-3.38,0.01-6.76,0-10.14,0
				c-2.98,0.02-5.96,0.01-8.95,0.02c-1.74,0.01-3.27-0.27-3.19-2.5C276.94,367.95,277.93,367.16,279.59,367.16z M301.91,380.26
				c-0.11,1.86-1.31,2.18-2.84,2.18c-6.5-0.01-13-0.01-19.5-0.01c-1.59,0-2.63-0.54-2.66-2.35c-0.03-1.78,0.89-2.47,2.54-2.46
				c3.35,0.01,6.7,0,10.04,0c3.15-0.01,6.3,0.01,9.45-0.02C300.79,377.58,302.04,378.1,301.91,380.26z"/>
		</g>
		<g>
			<path class="st1" d="M218.59,361.43h-62.77v-4.78c0-5.44-5.89-8.84-10.61-6.12l-27.14,15.67c-4.71,2.72-4.71,9.52,0,12.25
				l27.14,15.67c4.71,2.72,10.61-0.68,10.61-6.12v-4.19h62.77c3.01,0,5.48-2.46,5.48-5.48v-11.41
				C224.07,363.9,221.6,361.43,218.59,361.43z"/>
		</g>
	</g>
	<g>
		<path class="st2" d="M76.95,509.25l-7.96-29.99h4.07l4.56,19.66c0.49,2.06,0.91,4.11,1.27,6.14c0.76-3.21,1.21-5.05,1.35-5.54
			l5.71-20.25h4.79l4.3,15.18c1.08,3.76,1.85,7.3,2.33,10.62c0.38-1.9,0.88-4.07,1.49-6.53l4.71-19.27h3.99l-8.22,29.99h-3.83
			l-6.32-22.85c-0.53-1.91-0.85-3.08-0.94-3.52c-0.31,1.38-0.61,2.55-0.88,3.52L81,509.25H76.95z"/>
		<path class="st2" d="M111.34,509.25v-29.99h21.69v3.54h-17.72v9.19h16.59v3.52h-16.59v10.21h18.41v3.54H111.34z"/>
		<path class="st2" d="M137.85,499.61l3.74-0.33c0.18,1.5,0.59,2.73,1.24,3.69c0.65,0.96,1.65,1.74,3.02,2.33
			c1.36,0.59,2.9,0.89,4.6,0.89c1.51,0,2.85-0.23,4.01-0.68s2.02-1.07,2.59-1.85c0.57-0.78,0.85-1.64,0.85-2.57
			c0-0.94-0.27-1.76-0.82-2.46c-0.55-0.7-1.45-1.29-2.7-1.77c-0.81-0.31-2.58-0.8-5.34-1.46c-2.76-0.66-4.69-1.29-5.79-1.87
			c-1.43-0.75-2.5-1.68-3.2-2.79c-0.7-1.11-1.05-2.36-1.05-3.73c0-1.51,0.43-2.93,1.29-4.25c0.86-1.32,2.11-2.32,3.76-3
			c1.65-0.68,3.48-1.02,5.5-1.02c2.22,0,4.18,0.36,5.88,1.07c1.7,0.72,3,1.77,3.92,3.16c0.91,1.39,1.4,2.97,1.47,4.73l-3.81,0.29
			c-0.2-1.9-0.9-3.33-2.08-4.3c-1.18-0.97-2.92-1.45-5.23-1.45c-2.4,0-4.15,0.44-5.25,1.32s-1.65,1.94-1.65,3.18
			c0,1.08,0.39,1.96,1.17,2.66c0.76,0.7,2.76,1.41,5.98,2.14c3.23,0.73,5.44,1.37,6.64,1.91c1.75,0.8,3.03,1.82,3.87,3.06
			c0.83,1.24,1.25,2.66,1.25,4.27c0,1.6-0.46,3.1-1.37,4.51c-0.91,1.41-2.23,2.51-3.94,3.29c-1.71,0.78-3.64,1.18-5.78,1.18
			c-2.71,0-4.99-0.4-6.82-1.19c-1.83-0.79-3.27-1.98-4.32-3.57C138.46,503.41,137.91,501.62,137.85,499.61z"/>
		<path class="st2" d="M174.78,509.25v-26.45h-9.88v-3.54h23.77v3.54h-9.92v26.45H174.78z"/>
		<path class="st2" d="M225.02,498.73l3.97,1c-0.83,3.26-2.33,5.75-4.49,7.46c-2.16,1.71-4.8,2.57-7.93,2.57
			c-3.23,0-5.86-0.66-7.89-1.97c-2.02-1.32-3.57-3.22-4.62-5.72c-1.06-2.5-1.59-5.18-1.59-8.04c0-3.12,0.6-5.85,1.79-8.17
			c1.19-2.33,2.89-4.09,5.09-5.3s4.63-1.81,7.27-1.81c3,0,5.52,0.76,7.57,2.29c2.05,1.53,3.47,3.68,4.28,6.44l-3.91,0.92
			c-0.7-2.18-1.71-3.77-3.03-4.77c-1.32-1-2.99-1.49-4.99-1.49c-2.31,0-4.23,0.55-5.78,1.66c-1.55,1.1-2.64,2.59-3.26,4.45
			s-0.94,3.78-0.94,5.76c0,2.55,0.37,4.78,1.11,6.68c0.74,1.9,1.9,3.32,3.47,4.27c1.57,0.94,3.27,1.41,5.09,1.41
			c2.22,0,4.1-0.64,5.65-1.92S224.48,501.25,225.02,498.73z"/>
		<path class="st2" d="M230.59,509.25l11.52-29.99h4.28l12.27,29.99h-4.52l-3.5-9.08H238.1l-3.29,9.08H230.59z M239.24,496.93h10.17
			l-3.13-8.31c-0.96-2.52-1.66-4.6-2.13-6.22c-0.38,1.92-0.92,3.83-1.62,5.73L239.24,496.93z"/>
		<path class="st2" d="M261.89,509.25v-29.99h13.3c2.67,0,4.71,0.27,6.1,0.81c1.39,0.54,2.5,1.49,3.33,2.85
			c0.83,1.36,1.25,2.87,1.25,4.52c0,2.13-0.69,3.92-2.07,5.38c-1.38,1.46-3.51,2.39-6.38,2.78c1.05,0.5,1.85,1,2.39,1.49
			c1.16,1.06,2.26,2.39,3.29,3.99l5.22,8.16h-4.99l-3.97-6.24c-1.16-1.8-2.11-3.18-2.86-4.13c-0.75-0.95-1.42-1.62-2.02-2
			s-1.2-0.65-1.81-0.8c-0.45-0.1-1.19-0.14-2.21-0.14h-4.6v13.32H261.89z M265.86,492.49h8.53c1.81,0,3.23-0.19,4.26-0.56
			c1.02-0.38,1.8-0.97,2.33-1.8c0.53-0.82,0.8-1.72,0.8-2.69c0-1.42-0.52-2.58-1.54-3.5c-1.03-0.91-2.66-1.37-4.88-1.37h-9.49
			V492.49z"/>
		<path class="st2" d="M292.09,509.25v-29.99h10.33c2.33,0,4.11,0.14,5.34,0.43c1.72,0.4,3.18,1.11,4.4,2.15
			c1.58,1.34,2.77,3.04,3.55,5.12c0.78,2.08,1.18,4.46,1.18,7.13c0,2.28-0.27,4.3-0.8,6.06c-0.53,1.76-1.21,3.21-2.05,4.37
			c-0.83,1.15-1.74,2.06-2.73,2.72c-0.99,0.66-2.18,1.16-3.58,1.5c-1.4,0.34-3,0.51-4.82,0.51H292.09z M296.05,505.71h6.4
			c1.98,0,3.53-0.18,4.65-0.55c1.13-0.37,2.02-0.89,2.69-1.55c0.94-0.94,1.67-2.21,2.2-3.79c0.52-1.59,0.79-3.51,0.79-5.78
			c0-3.14-0.52-5.55-1.54-7.23c-1.03-1.68-2.28-2.81-3.75-3.39c-1.06-0.41-2.78-0.61-5.14-0.61h-6.3V505.71z"/>
		<path class="st2" d="M328.38,509.25l11.52-29.99h4.28l12.27,29.99h-4.52l-3.5-9.08h-12.54l-3.29,9.08H328.38z M337.03,496.93
			h10.17l-3.13-8.31c-0.96-2.52-1.66-4.6-2.13-6.22c-0.38,1.92-0.92,3.83-1.62,5.73L337.03,496.93z"/>
		<path class="st2" d="M359.62,509.25v-29.99h11.31c1.99,0,3.51,0.1,4.56,0.29c1.47,0.25,2.71,0.71,3.7,1.4c1,0.69,1.8,1.65,2.4,2.9
			c0.61,1.24,0.91,2.6,0.91,4.09c0,2.55-0.81,4.71-2.43,6.48c-1.62,1.77-4.56,2.65-8.8,2.65h-7.69v12.19H359.62z M363.59,493.51
			h7.75c2.56,0,4.38-0.48,5.46-1.43c1.08-0.95,1.62-2.3,1.62-4.03c0-1.25-0.32-2.33-0.95-3.22c-0.63-0.89-1.47-1.48-2.51-1.77
			c-0.67-0.18-1.9-0.27-3.7-0.27h-7.67V493.51z"/>
		<path class="st2" d="M387.56,509.25v-29.99h11.31c1.99,0,3.51,0.1,4.56,0.29c1.47,0.25,2.71,0.71,3.7,1.4c1,0.69,1.8,1.65,2.4,2.9
			c0.61,1.24,0.91,2.6,0.91,4.09c0,2.55-0.81,4.71-2.43,6.48c-1.62,1.77-4.56,2.65-8.8,2.65h-7.69v12.19H387.56z M391.53,493.51
			h7.75c2.56,0,4.38-0.48,5.46-1.43c1.08-0.95,1.62-2.3,1.62-4.03c0-1.25-0.32-2.33-0.95-3.22c-0.63-0.89-1.47-1.48-2.51-1.77
			c-0.67-0.18-1.9-0.27-3.7-0.27h-7.67V493.51z"/>
	</g>
</g>
</svg>
